<svg width="104" height="148" viewBox="0 0 104 148" fill="none" xmlns="http://www.w3.org/2000/svg">
<path d="M100.161 0.229797H3.95395C1.94539 0.229797 0.317139 1.85806 0.317139 3.86662V41.0722C0.317139 43.0807 1.94539 44.709 3.95395 44.709H100.161C102.17 44.709 103.798 43.0807 103.798 41.0722V3.86662C103.798 1.85806 102.17 0.229797 100.161 0.229797Z" fill="white"/>
<path d="M3.59265 0.30368H52.9072V44.709H3.59265C2.72173 44.709 1.88647 44.363 1.27064 43.7472C0.654807 43.1313 0.308838 42.2961 0.308838 41.4252V3.57928C0.311012 2.70978 0.657936 1.87664 1.27353 1.26258C1.88913 0.648518 2.72315 0.303678 3.59265 0.30368Z" fill="#27AE7B"/>
<g opacity="0.3">
<path opacity="0.3" d="M43.3185 24.3001C44.9604 23.2493 45.65 21.2708 46.2657 19.44C46.6598 18.2414 47.0456 16.8787 46.4463 15.7786C45.8996 14.9894 45.114 14.3966 44.2051 14.0874C40.9878 12.6421 37.643 11.4988 34.2141 10.6723L9.19971 19.5796C9.00881 20.3083 9.04017 21.0774 9.28978 21.7881C9.53939 22.4988 9.99584 23.1186 10.6005 23.5679C11.2051 24.0171 11.9302 24.2753 12.6827 24.3092C13.4352 24.3432 14.1806 24.1513 14.8232 23.7582C15.8062 28.6741 15.4083 33.7661 13.6739 38.4697C13.5084 38.7722 13.4083 39.1061 13.38 39.4497C13.3517 39.7934 13.3959 40.1391 13.5097 40.4646C13.9038 41.1624 14.8561 41.2445 15.6524 41.2445L40.7325 41.3184C41.9557 41.3184 43.3513 41.2527 44.1148 40.3004C44.8783 39.3481 44.632 37.8376 44.3118 36.6226L41.849 27.2637C41.6364 26.7143 41.619 26.1086 41.7997 25.5479C42.0788 24.9404 42.7602 24.6285 43.3185 24.3001Z" fill="black"/>
</g>
<path d="M40.1005 36.5569C39.9281 36.1875 37.7033 28.1996 37.7033 28.1996L38.122 19.6945L38.5242 7.89747L32.7776 6.87949C28.6236 9.28488 22.1052 10.2947 17.8527 8.34079C17.8527 8.34079 15.5704 8.44751 14.4539 9.4737C14.0188 9.86775 14.7166 13.2993 15.3488 16.6899C16.0055 20.2528 17.8609 29.1109 17.8609 29.1109C17.8609 29.1109 14.7166 36.7047 14.0435 38.8884C14.0435 38.8884 33.2948 35.3994 39.7393 38.8884C39.7475 38.8884 41.1102 38.6996 40.1005 36.5569Z" fill="white"/>
<path d="M7.41028 13.8001L14.5936 9.37515L16.5229 19.2266L12.8203 22.3626C12.8203 22.3626 7.20504 19.4893 7.41028 13.8001Z" fill="white"/>
<path d="M38.5239 7.89749L45.814 11.0499C45.814 11.0499 43.4168 20.2036 42.0212 21.2544L38.3187 19.6946L37.4074 22.5597L37.3582 11.0664L38.5239 7.89749Z" fill="white"/>
<path d="M13.4932 21.4678C13.3618 21.4299 13.2372 21.3718 13.1238 21.2954C12.8056 21.1143 12.4985 20.9141 12.2043 20.6961C11.2316 19.9664 10.3974 19.0684 9.74144 18.0445C9.38528 17.4741 9.0882 16.869 8.85481 16.2384C8.66991 15.7244 8.5352 15.1938 8.45255 14.6539C8.39327 14.2904 8.36852 13.9221 8.37866 13.5539C8.35946 13.4205 8.35946 13.285 8.37866 13.1516C8.42791 13.1516 8.41971 13.7262 8.60032 14.6211C8.70192 15.1441 8.84747 15.6577 9.03542 16.1563C9.27475 16.766 9.57164 17.3515 9.92205 17.9049C10.5889 18.8953 11.4028 19.7784 12.3357 20.5237C13.0253 21.1312 13.5178 21.4268 13.4932 21.4678Z" fill="#E0E0E0"/>
<path d="M15.5376 17.8557C15.5376 17.8557 15.4309 17.8557 15.2585 17.7161C15.0347 17.5484 14.8234 17.3645 14.6263 17.1661C14.0026 16.4971 13.4317 15.7807 12.9188 15.0234C12.3963 14.2727 11.9193 13.4914 11.4903 12.6837C11.2915 12.3579 11.1525 11.9993 11.0798 11.6246C11.0798 11.6246 11.2851 12.0023 11.6463 12.5934C12.0075 13.1844 12.5247 14.0054 13.124 14.8756C13.7233 15.7458 14.3062 16.5175 14.7659 17.0429C14.9958 17.3056 15.1928 17.5026 15.3324 17.6422C15.4719 17.7818 15.5458 17.8392 15.5376 17.8557Z" fill="#E0E0E0"/>
<path d="M37.6789 8.56244C37.3936 8.6655 37.0996 8.74244 36.8005 8.7923C36.234 8.93186 35.4131 9.15352 34.4197 9.45727L30.906 10.5574C29.4694 11.0178 27.9978 11.361 26.5057 11.5835C23.7723 11.9457 20.9921 11.6646 18.3865 10.7626C17.5998 10.491 16.8343 10.1617 16.0961 9.77745C15.8334 9.6461 15.6445 9.51474 15.5132 9.44086L15.3162 9.3095C15.5973 9.41851 15.8714 9.54463 16.1371 9.68714C16.8796 10.0388 17.6448 10.3405 18.4276 10.5902C21.0182 11.4324 23.7654 11.6793 26.4647 11.3126C27.943 11.0898 29.4028 10.7577 30.8322 10.3193C32.1539 9.93343 33.3443 9.55579 34.354 9.26846C35.3638 8.98112 36.193 8.7923 36.7676 8.68558C37.055 8.6199 37.2848 8.59528 37.4408 8.57065C37.5194 8.55635 37.5996 8.55358 37.6789 8.56244Z" fill="#E0E0E0"/>
<path d="M38.4505 15.2203C38.4505 15.2203 38.3766 15.2203 38.2206 15.2778L37.5474 15.3927C36.9646 15.483 36.119 15.5898 35.0846 15.6965C32.3564 15.9656 29.6164 16.0971 26.8751 16.0905C23.6487 16.0905 20.7343 15.9756 18.6655 15.8689L16.2027 15.7211L15.5213 15.6719C15.4423 15.6834 15.3621 15.6834 15.2832 15.6719H15.5213H16.2027L18.6655 15.7375C20.7754 15.8032 23.6898 15.8935 26.8751 15.8935C30.0603 15.8935 32.9994 15.7457 35.0846 15.5651C36.1354 15.483 36.981 15.4009 37.5474 15.3435L38.2206 15.2778C38.2953 15.2517 38.3723 15.2325 38.4505 15.2203V15.2203Z" fill="#E0E0E0"/>
<path d="M38.1218 19.7027C37.8539 19.8072 37.5797 19.8949 37.3009 19.9654C37.03 20.0475 36.7016 20.1214 36.3075 20.2035C35.9135 20.2856 35.4866 20.3841 34.9858 20.4662C32.4133 20.8728 29.8154 21.0978 27.2114 21.1394C24.1574 21.2297 21.399 21.1394 19.4041 20.9834C18.4108 20.9095 17.6063 20.8274 17.048 20.7535C16.7709 20.7218 16.4965 20.6697 16.2271 20.5976C16.5153 20.5979 16.8033 20.6171 17.089 20.655C17.6473 20.655 18.4518 20.7535 19.4452 20.8028C21.4401 20.8931 24.1903 20.9752 27.236 20.8849C29.829 20.8425 32.4171 20.6424 34.9858 20.2856C35.4893 20.2199 35.9326 20.146 36.3157 20.0639C36.7016 19.9983 37.0382 19.9408 37.3091 19.8669C37.5742 19.7868 37.8464 19.7318 38.1218 19.7027V19.7027Z" fill="#E0E0E0"/>
<path d="M37.4898 25.7614C37.2198 25.8224 36.9452 25.8609 36.6688 25.8763C36.1598 25.9338 35.421 26.0077 34.5015 26.0815C32.6626 26.2211 30.1176 26.3689 27.3018 26.4017C24.4859 26.4346 21.941 26.336 20.102 26.1718C19.1908 26.0815 18.4601 25.9994 17.9347 25.9091C17.6578 25.8802 17.3834 25.8308 17.1138 25.7614C17.3884 25.7491 17.6635 25.7656 17.9347 25.8106C18.4437 25.8681 19.1826 25.9256 20.102 25.9912C21.941 26.1062 24.4777 26.1883 27.2854 26.1472C30.093 26.1062 32.6298 25.9995 34.4687 25.9009L36.6442 25.7778C36.9248 25.7445 37.2081 25.7389 37.4898 25.7614V25.7614Z" fill="#E0E0E0"/>
<path d="M38.68 31.7379C38.3932 31.7616 38.1049 31.7616 37.818 31.7379L35.4537 31.5737C33.467 31.4424 30.7168 31.3028 27.6711 31.3028C24.6253 31.3028 21.8751 31.4424 19.8884 31.5737L17.5323 31.7379C17.2427 31.7616 16.9517 31.7616 16.6621 31.7379C16.933 31.6782 17.2071 31.6344 17.4831 31.6066C18.0331 31.5327 18.8376 31.4506 19.831 31.3603C21.8259 31.1879 24.5843 31.0237 27.63 31.0237C30.6758 31.0237 33.4424 31.1797 35.4291 31.3603C36.4224 31.4506 37.227 31.5327 37.7852 31.6066C38.086 31.6314 38.3848 31.6753 38.68 31.7379Z" fill="#E0E0E0"/>
<path d="M40.9873 10.426C40.7902 11.1663 40.4652 11.8665 40.0268 12.4948C39.6623 13.17 39.175 13.7714 38.5901 14.268C38.5326 14.268 39.1566 13.4471 39.8133 12.3634C40.4701 11.2798 40.9216 10.3932 40.9873 10.426Z" fill="#E0E0E0"/>
<path d="M14.7251 13.1352C14.8006 13.3337 14.8529 13.5403 14.8811 13.7509C14.9796 14.2024 15.0945 14.7771 15.2423 15.4585C15.5543 16.9526 15.9647 18.9147 16.4245 21.0902C16.8842 23.2657 17.2454 25.2853 17.5328 26.7301C17.6559 27.4526 17.7544 28.0437 17.8119 28.4541C17.8552 28.6647 17.8744 28.8795 17.8694 29.0945C17.7963 28.8923 17.7441 28.6833 17.7134 28.4705C17.6231 28.019 17.4999 27.4444 17.3522 26.763C17.0402 25.277 16.6297 23.3068 16.17 21.1394C15.7103 18.9721 15.349 16.9444 15.0617 15.4913C14.9386 14.7689 14.84 14.1778 14.7826 13.7755C14.7395 13.5649 14.7202 13.3501 14.7251 13.1352Z" fill="#263238"/>
<path d="M38.6065 15.7622C38.629 15.9256 38.629 16.0913 38.6065 16.2548C38.6065 16.5749 38.6065 17.0264 38.549 17.5929C38.4915 18.7176 38.4013 20.2774 38.2781 21.9932C38.155 23.709 38.0318 25.277 37.9251 26.3853C37.8758 26.9435 37.8266 27.4033 37.7937 27.7152C37.7898 27.8805 37.7593 28.044 37.7034 28.1996C37.6838 28.036 37.6838 27.8706 37.7034 27.707C37.7034 27.3951 37.7034 26.9353 37.7527 26.3771C37.8102 25.2442 37.9087 23.6926 38.0318 21.9768C38.155 20.261 38.2781 18.693 38.3848 17.5765C38.4341 17.0182 38.4833 16.5585 38.5162 16.2465C38.5284 16.0823 38.5587 15.9198 38.6065 15.7622V15.7622Z" fill="#263238"/>
<path d="M43.852 10.3275C43.6894 10.8225 43.4918 11.3053 43.2609 11.7724C42.8833 12.6672 42.3907 13.9068 41.9392 15.3107C41.4876 16.7145 41.1757 18.0116 40.9704 18.9557C40.8817 19.4709 40.7638 19.9807 40.6174 20.4827C40.6174 20.4827 40.6174 20.3349 40.6174 20.064C40.6174 19.7931 40.6913 19.399 40.7734 18.9229C40.9931 17.6749 41.2976 16.4434 41.6847 15.2368C42.0703 14.0275 42.5365 12.8454 43.0803 11.6985C43.2937 11.2634 43.4743 10.8775 43.6057 10.6805C43.6738 10.5536 43.7564 10.4352 43.852 10.3275Z" fill="#E0E0E0"/>
<path d="M40.0759 36.8524C39.9867 36.847 39.8984 36.8304 39.8132 36.8032L39.058 36.6226C38.7378 36.5405 38.3355 36.4419 37.8676 36.3516C37.3996 36.2613 36.8824 36.13 36.2831 36.0397C35.6838 35.9494 35.0517 35.8262 34.3539 35.7523C33.6561 35.6785 32.909 35.6046 32.1209 35.5389C28.6961 35.3106 25.2561 35.5398 21.8918 36.2203C21.1201 36.3927 20.3813 36.5405 19.7081 36.7293C19.0349 36.9181 18.4028 37.0905 17.8281 37.2711C17.2535 37.4517 16.7527 37.6323 16.3012 37.7883C15.8496 37.9443 15.4802 38.0921 15.16 38.2234L14.4376 38.4943C14.3573 38.5342 14.2715 38.5618 14.1831 38.5764C14.1831 38.5764 14.257 38.5272 14.4212 38.4533L15.119 38.1249C15.431 37.9853 15.8004 37.8211 16.2519 37.657C16.7034 37.4928 17.196 37.2793 17.7707 37.0987C18.3453 36.9181 18.9693 36.7047 19.6506 36.524C20.332 36.3434 21.0709 36.171 21.8426 35.9904C25.225 35.2801 28.6904 35.048 32.1373 35.3008C32.9583 35.3747 33.6807 35.4322 34.3785 35.5471C35.0763 35.662 35.7331 35.7523 36.316 35.8673C36.8989 35.9822 37.4407 36.1054 37.9004 36.2121C38.3601 36.3188 38.7624 36.4337 39.0826 36.5323L39.8214 36.7539C39.9099 36.7766 39.9953 36.8097 40.0759 36.8524V36.8524Z" fill="#E0E0E0"/>
<path d="M53.022 45.0538C52.9071 45.0538 52.8086 35.2024 52.8086 22.962C52.8086 10.7216 52.9071 0.861938 53.022 0.861938C53.137 0.861938 53.2355 10.7134 53.2355 22.962C53.2355 35.2106 53.137 45.0538 53.022 45.0538Z" fill="#27AE7B"/>
<path d="M100.178 44.709C100.178 44.709 100.432 44.709 100.917 44.6104C101.627 44.444 102.274 44.0763 102.78 43.5514C103.145 43.159 103.425 42.6949 103.601 42.1886C103.764 41.5621 103.819 40.9126 103.765 40.2676C103.765 38.8556 103.765 37.2301 103.765 35.3994C103.765 28.0601 103.724 17.4616 103.7 4.35917C103.717 3.95816 103.692 3.55643 103.626 3.16058C103.499 2.56542 103.219 2.01344 102.815 1.55868C102.411 1.10393 101.895 0.761998 101.319 0.566376C100.49 0.380076 99.6375 0.319194 98.7904 0.385765H84.9245H60.2959H3.92933C3.33966 0.383864 2.75944 0.533945 2.24465 0.821539C1.72986 1.10913 1.29786 1.52453 0.990324 2.02767C0.69183 2.52535 0.522513 3.08977 0.497761 3.66957V12.8724C0.497761 17.7407 0.497761 22.5433 0.497761 27.2555V41.1296C0.520457 41.6637 0.667307 42.1851 0.926664 42.6525C1.18602 43.1199 1.55074 43.5205 1.99189 43.8223C2.4282 44.1224 2.9286 44.3164 3.45318 44.3888C4.00009 44.4179 4.54817 44.4179 5.09509 44.3888H11.6627L57.7017 44.4298L88.7419 44.5037H97.1813H99.3732H100.12C100.12 44.5037 99.8658 44.5037 99.3732 44.5037H97.1813L88.7419 44.5448L57.7017 44.6104L11.6627 44.6597H5.09509C4.53183 44.692 3.96718 44.692 3.40393 44.6597C2.81504 44.5843 2.25239 44.3705 1.76202 44.0358C1.27312 43.6956 0.870197 43.2462 0.585197 42.7233C0.300197 42.2003 0.140962 41.6181 0.120117 41.0229C0.120117 36.4858 0.120117 31.8556 0.120117 27.1324V3.73525C0.15201 2.73625 0.570324 1.7886 1.28697 1.09186C2.00362 0.395121 2.96267 0.00366098 3.96218 -8.33298e-05H60.3287H84.9573H96.1058H100.071C100.52 -0.00622193 100.967 0.0631575 101.393 0.205155C102.019 0.418521 102.579 0.791018 103.018 1.28611C103.457 1.78119 103.76 2.38187 103.897 3.02923C103.968 3.44663 103.996 3.87037 103.979 4.2935C103.979 17.4287 103.921 27.9944 103.905 35.3337C103.905 37.1644 103.905 38.7899 103.905 40.2019C103.952 40.8597 103.885 41.5207 103.708 42.1558C103.535 42.6709 103.255 43.1437 102.887 43.5432C102.37 44.0772 101.703 44.4409 100.974 44.5858C100.715 44.6602 100.447 44.7015 100.178 44.709V44.709Z" fill="#27AE7B"/>
<path d="M75.9022 10.426C75.9022 10.541 71.6578 10.6395 66.4284 10.6395C61.1989 10.6395 56.9546 10.541 56.9546 10.426C56.9546 10.3111 61.1989 10.2126 66.4284 10.2126C71.6578 10.2126 75.9022 10.3029 75.9022 10.426Z" fill="#27AE7B"/>
<path d="M94.1686 16.2629C94.1686 16.3779 85.7949 16.4764 75.4673 16.4764C65.1397 16.4764 56.7578 16.3779 56.7578 16.2629C56.7578 16.148 65.1315 16.0495 75.4673 16.0495C85.8031 16.0495 94.1686 16.1398 94.1686 16.2629Z" fill="#27AE7B"/>
<path d="M94.1686 19.7028C94.1686 19.8259 85.7949 19.9162 75.4673 19.9162C65.1397 19.9162 56.7578 19.8259 56.7578 19.7028C56.7578 19.5797 65.1315 19.4893 75.4673 19.4893C85.8031 19.4893 94.1686 19.5714 94.1686 19.7028Z" fill="#27AE7B"/>
<path d="M90.2363 36.5569C90.1925 36.1707 90.0321 35.807 89.7765 35.5143C89.5351 35.214 89.2045 34.9983 88.8324 34.8985C88.5183 34.8215 88.1876 34.8496 87.891 34.9787C87.5944 35.1077 87.3483 35.3304 87.1905 35.6128C87.0878 35.4181 86.9418 35.2495 86.7636 35.1202C86.5993 35.0022 86.4126 34.9187 86.2151 34.875C86.0175 34.8312 85.8131 34.8281 85.6143 34.8657C85.2415 34.9473 84.903 35.1423 84.6455 35.424C84.3754 35.7073 84.1954 36.0644 84.1284 36.4501C84.0524 36.9431 84.1389 37.4473 84.3746 37.8868C84.6526 38.3304 85.029 38.7041 85.4747 38.9787L87.1659 40.0295C87.1659 40.0295 87.9868 39.4302 88.7585 39.0115C89.2204 38.7626 89.617 38.4082 89.9161 37.9771C90.1727 37.5504 90.285 37.0524 90.2363 36.5569V36.5569Z" fill="#27AE7B"/>
<path d="M87.1577 40.1527H87.1002C87.1002 40.1527 86.1315 39.5616 85.4173 39.1018C84.9499 38.8269 84.5578 38.4405 84.2762 37.9771C84.0318 37.5168 83.9399 36.9907 84.0135 36.4748C84.0848 36.0692 84.2764 35.6945 84.5635 35.3993C84.8333 35.0974 85.1931 34.8901 85.5897 34.8082C85.8027 34.77 86.0211 34.7743 86.2324 34.8208C86.4438 34.8673 86.6438 34.9551 86.8211 35.0792C86.9623 35.1861 87.0867 35.3133 87.1905 35.4568C87.3717 35.2023 87.6248 35.0077 87.9174 34.898C88.2099 34.7883 88.5286 34.7685 88.8324 34.8411C89.2244 34.9455 89.5726 35.1728 89.8258 35.4896C90.0988 35.7963 90.2683 36.1812 90.3102 36.5897C90.3625 37.1085 90.2444 37.6301 89.9736 38.0756C89.6622 38.5195 89.2518 38.8848 88.775 39.1429C88.0361 39.5534 87.1987 40.1444 87.1905 40.1527H87.1577ZM85.877 34.9396C85.7951 34.9315 85.7126 34.9315 85.6307 34.9396C85.2755 35.0271 84.9532 35.2156 84.7027 35.4821C84.4522 35.7487 84.2841 36.082 84.2187 36.4419C84.1494 36.9126 84.2329 37.3932 84.4568 37.8129C84.7239 38.2431 85.0898 38.6033 85.524 38.8638C86.1397 39.2578 86.936 39.7504 87.1659 39.8817C87.3711 39.7422 88.0772 39.2578 88.7093 38.8966C89.1571 38.6585 89.5424 38.3182 89.834 37.9032C90.0868 37.4994 90.1967 37.0224 90.146 36.5487V36.5487C90.1104 36.1797 89.958 35.8316 89.7109 35.5553C89.488 35.2683 89.1762 35.0633 88.8242 34.9724C88.5309 34.9011 88.2222 34.9275 87.9451 35.0475C87.6681 35.1675 87.4377 35.3746 87.289 35.6374L87.1987 35.8016L87.1166 35.6374C87.0144 35.459 86.8776 35.3028 86.7144 35.1777C86.4662 35.0146 86.1739 34.9315 85.877 34.9396V34.9396Z" fill="#263238"/>
<path d="M98.8642 39.0116H97.641H94.6117L94.546 38.5108C94.3572 37.0413 94.193 35.7278 94.0863 34.874H93.2653H93.0519C93.0027 34.874 92.978 34.874 92.978 34.874H94.0863C94.2012 35.6949 94.3736 37.0413 94.5707 38.5108C94.5707 38.6832 94.6117 38.8474 94.6363 39.0116L97.6657 39.0526H98.5605H98.8889L98.8642 39.0116Z" fill="#263238"/>
<path d="M97.6329 39.0854H94.5872C94.5872 39.0854 94.5297 39.0854 94.5297 39.0362L94.464 38.5108L94.0043 34.9396H93.0602C92.9699 34.9396 92.9207 34.9396 92.9207 34.8657C92.9207 34.7918 92.9781 34.8083 93.0602 34.8H94.0782C94.0782 34.8 94.1521 34.8 94.1521 34.8493L94.6447 38.5928C94.6447 38.6996 94.6446 38.8063 94.6857 38.9048L98.7905 38.9705C98.889 38.9705 98.9382 38.9705 98.9382 39.0362C98.9382 39.1018 98.889 39.1018 98.7905 39.1018H97.6411L97.6329 39.0854Z" fill="#263238"/>
<path d="M94.505 38.0921H95.7365H98.8725C98.971 37.5667 99.0778 37.0002 99.1845 36.4091L99.3487 35.5225H95.6462H94.5543H95.6462H99.3487C99.2994 35.8098 99.2419 36.1054 99.1845 36.4091C99.0695 37.0002 98.9628 37.5749 98.8643 38.1003H95.7283H94.817H94.4968L94.505 38.0921Z" fill="#263238"/>
<path d="M98.897 38.2235L94.546 38.1578C94.546 38.1578 94.4639 38.1578 94.4639 38.0921C94.4595 38.0788 94.4595 38.0644 94.4639 38.0511C94.4739 38.0453 94.4852 38.0423 94.4967 38.0423C94.5082 38.0423 94.5195 38.0453 94.5295 38.0511H95.7446H98.8067L99.25 35.6621L94.2012 35.5882C94.2012 35.5882 94.1108 35.5882 94.1108 35.5225C94.1108 35.4568 94.1765 35.4568 94.2012 35.4568H95.6625H99.3978H99.447C99.4514 35.4643 99.4536 35.4728 99.4536 35.4815C99.4536 35.4901 99.4514 35.4986 99.447 35.5061L99.2746 36.4256C99.209 36.8032 99.1351 37.1808 99.0694 37.5421L98.9545 38.1331C98.9613 38.1425 98.9652 38.1537 98.9655 38.1652C98.9659 38.1768 98.9628 38.1882 98.9566 38.1979C98.9503 38.2077 98.9414 38.2153 98.9307 38.2199C98.9201 38.2244 98.9083 38.2257 98.897 38.2235V38.2235Z" fill="#263238"/>
<path d="M95.6705 40.1363C95.6705 40.1363 95.6705 40.1363 95.6705 40.0377C95.6451 39.9483 95.5901 39.8702 95.5145 39.8161C95.4624 39.7738 95.3999 39.7462 95.3335 39.7361C95.2672 39.726 95.1993 39.7338 95.1369 39.7586C95.0595 39.7853 94.9921 39.835 94.9437 39.901C94.8953 39.967 94.8682 40.0462 94.866 40.128C94.8681 40.2098 94.8941 40.2891 94.9408 40.3562C94.9875 40.4233 95.0528 40.4753 95.1287 40.5057C95.1908 40.5293 95.2578 40.5372 95.3237 40.5286C95.3896 40.52 95.4523 40.4952 95.5063 40.4564C95.5845 40.405 95.6403 40.3257 95.6623 40.2348C95.6623 40.1773 95.6623 40.1363 95.6623 40.1363C95.6696 40.1715 95.6696 40.2078 95.6623 40.243C95.6379 40.3396 95.5832 40.4259 95.5063 40.4893C95.4479 40.535 95.3788 40.565 95.3055 40.5765C95.2322 40.588 95.1572 40.5806 95.0876 40.5549C95.009 40.5189 94.9424 40.4611 94.8957 40.3883C94.8491 40.3156 94.8242 40.2309 94.8242 40.1445C94.8242 40.058 94.8491 39.9734 94.8957 39.9006C94.9424 39.8278 95.009 39.77 95.0876 39.734C95.1579 39.7095 95.2333 39.7034 95.3066 39.7163C95.3799 39.7292 95.4487 39.7608 95.5063 39.8079C95.5842 39.869 95.6368 39.9567 95.6541 40.0542C95.6639 40.0805 95.6695 40.1082 95.6705 40.1363V40.1363Z" fill="#263238"/>
<path d="M95.2522 40.6453C95.1953 40.657 95.1367 40.657 95.0798 40.6453C94.9803 40.6095 94.8945 40.5436 94.8342 40.4568C94.7738 40.37 94.7421 40.2666 94.7432 40.1609C94.7447 40.0664 94.7725 39.9741 94.8235 39.8945C94.8745 39.8149 94.9466 39.751 95.0319 39.7101C95.1171 39.6692 95.2121 39.6528 95.3061 39.6629C95.4001 39.6729 95.4894 39.7089 95.5641 39.7669C95.6514 39.8413 95.712 39.9422 95.7365 40.0542C95.7406 40.0924 95.7406 40.1309 95.7365 40.1691C95.7453 40.2069 95.7453 40.2463 95.7365 40.2841C95.7173 40.3981 95.6557 40.5007 95.5641 40.5714C95.4708 40.629 95.3614 40.6549 95.2522 40.6453V40.6453ZM95.2522 39.8243H95.1372C95.073 39.8477 95.0174 39.89 94.9778 39.9457C94.9382 40.0015 94.9165 40.0679 94.9156 40.1363C94.9164 40.2046 94.937 40.2712 94.9749 40.328C95.0127 40.3848 95.0663 40.4295 95.129 40.4565C95.1831 40.4763 95.2411 40.4829 95.2982 40.4758C95.3553 40.4686 95.4099 40.4479 95.4574 40.4154C95.5202 40.3681 95.5662 40.3019 95.5888 40.2266V40.1609C95.5947 40.1394 95.5947 40.1167 95.5888 40.0952C95.5692 40.0185 95.5225 39.9515 95.4574 39.9064C95.4329 39.8742 95.402 39.8474 95.3667 39.8277C95.3314 39.8079 95.2924 39.7956 95.2522 39.7915V39.8243Z" fill="#263238"/>
<path d="M98.4043 40.1609C98.4043 40.1609 98.4043 40.1609 98.4043 40.0624C98.3789 39.973 98.3239 39.8948 98.2483 39.8408C98.195 39.8006 98.1326 39.7744 98.0667 39.7643C98.0008 39.7543 97.9334 39.7608 97.8707 39.7833C97.7948 39.8113 97.7292 39.8616 97.6823 39.9275C97.6354 39.9934 97.6095 40.0719 97.6079 40.1527C97.6048 40.2345 97.6278 40.3152 97.6735 40.3831C97.7193 40.451 97.7854 40.5025 97.8624 40.5303C97.9241 40.5563 97.9916 40.5655 98.0579 40.5568C98.1243 40.5482 98.1872 40.522 98.2401 40.4811C98.3153 40.4283 98.3725 40.3538 98.4043 40.2677C98.4043 40.202 98.4043 40.1609 98.4043 40.1609C98.4116 40.1961 98.4116 40.2325 98.4043 40.2677C98.3963 40.3171 98.3784 40.3645 98.3516 40.4068C98.3248 40.4492 98.2896 40.4856 98.2483 40.5139C98.182 40.5651 98.1026 40.5965 98.0192 40.6044C97.9358 40.6124 97.8519 40.5965 97.7772 40.5587C97.7024 40.5209 97.6399 40.4627 97.5969 40.3909C97.5539 40.319 97.5321 40.2364 97.5341 40.1527C97.5345 40.0599 97.564 39.9696 97.6185 39.8945C97.673 39.8194 97.7497 39.7632 97.8378 39.734C97.908 39.7087 97.9835 39.7022 98.057 39.7151C98.1305 39.7281 98.1993 39.7601 98.2565 39.8079C98.3344 39.869 98.387 39.9567 98.4043 40.0542C98.4116 40.0894 98.4116 40.1257 98.4043 40.1609V40.1609Z" fill="#263238"/>
<path d="M97.9693 40.6699C97.9125 40.6816 97.8538 40.6816 97.7969 40.6699C97.6974 40.635 97.6112 40.57 97.5503 40.484C97.4893 40.398 97.4565 40.2951 97.4565 40.1897C97.4565 40.0842 97.4893 39.9814 97.5503 39.8953C97.6112 39.8093 97.6974 39.7443 97.7969 39.7094C97.8778 39.6795 97.9651 39.6714 98.0501 39.6858C98.1351 39.7002 98.2148 39.7366 98.2813 39.7915C98.3686 39.8659 98.4291 39.9668 98.4537 40.0788C98.4619 40.1167 98.4619 40.1559 98.4537 40.1938C98.4578 40.2347 98.4578 40.276 98.4537 40.3169C98.4259 40.4273 98.3624 40.5254 98.2731 40.596C98.1825 40.653 98.0759 40.6789 97.9693 40.6699ZM97.9693 39.849C97.9314 39.8414 97.8924 39.8414 97.8544 39.849C97.7908 39.8733 97.7358 39.9159 97.6963 39.9714C97.6569 40.0269 97.6348 40.0928 97.6327 40.1609C97.6335 40.2292 97.6541 40.2958 97.692 40.3526C97.7299 40.4095 97.7835 40.4541 97.8462 40.4811C97.9001 40.5016 97.9582 40.5086 98.0155 40.5014C98.0727 40.4943 98.1274 40.4732 98.1746 40.44C98.2402 40.3955 98.287 40.3283 98.3059 40.2512C98.3128 40.2299 98.3128 40.2069 98.3059 40.1856V40.1856C98.3042 40.161 98.3042 40.1363 98.3059 40.1117C98.2799 40.0381 98.2345 39.9729 98.1746 39.9229C98.1222 39.8683 98.0526 39.8335 97.9776 39.8243L97.9693 39.849Z" fill="#263238"/>
<path d="M100.342 35.1449C100.339 35.3848 100.265 35.6184 100.129 35.8162C99.9929 36.014 99.8015 36.1672 99.5788 36.2564C99.356 36.3456 99.1118 36.3668 98.877 36.3175C98.6422 36.2681 98.4273 36.1503 98.2593 35.9789C98.0914 35.8075 97.978 35.5902 97.9333 35.3545C97.8887 35.1187 97.9148 34.875 98.0085 34.6541C98.1022 34.4332 98.2592 34.245 98.4597 34.1132C98.6602 33.9814 98.8953 33.9119 99.1352 33.9135C99.2955 33.9145 99.4539 33.9473 99.6015 34.0099C99.749 34.0724 99.8827 34.1636 99.9949 34.278C100.107 34.3925 100.195 34.528 100.255 34.6768C100.315 34.8256 100.344 34.9847 100.342 35.1449V35.1449Z" fill="#263238"/>
<path d="M99.1598 35.7934C99.145 35.5885 99.145 35.3827 99.1598 35.1777C99.1553 34.9632 99.1718 34.7487 99.2091 34.5374C99.2392 34.7498 99.2392 34.9653 99.2091 35.1777C99.2078 35.3836 99.194 35.5892 99.168 35.7934C99.1653 35.7937 99.1626 35.7937 99.1598 35.7934Z" fill="white"/>
<path d="M99.8162 35.2188C99.6032 35.239 99.3888 35.239 99.1758 35.2188C98.9635 35.2295 98.7507 35.2101 98.5437 35.1613C98.7539 35.141 98.9656 35.141 99.1758 35.1613C99.3909 35.1517 99.6063 35.171 99.8162 35.2188Z" fill="white"/>
<path d="M75.2369 37.9689C75.2369 38.0839 71.3784 38.1824 66.6169 38.1824C61.8554 38.1824 58.0051 38.0839 58.0051 37.9689C58.0051 37.854 61.8636 37.7555 66.6169 37.7555C71.3702 37.7555 75.2369 37.854 75.2369 37.9689Z" fill="#27AE7B"/>
<path d="M100.161 51.6461H3.95395C1.94539 51.6461 0.317139 53.2743 0.317139 55.2829V92.4884C0.317139 94.497 1.94539 96.1252 3.95395 96.1252H100.161C102.17 96.1252 103.798 94.497 103.798 92.4884V55.2829C103.798 53.2743 102.17 51.6461 100.161 51.6461Z" fill="#F5F5F5"/>
<path d="M3.59265 51.7199H52.9072V96.1252H3.59265C2.72173 96.1252 1.88647 95.7792 1.27064 95.1634C0.654807 94.5476 0.308838 93.7123 0.308838 92.8414V55.0037C0.308838 54.1328 0.654807 53.2975 1.27064 52.6817C1.88647 52.0659 2.72173 51.7199 3.59265 51.7199Z" fill="white"/>
<path d="M53.022 96.47C52.9071 96.47 52.8086 86.6186 52.8086 74.3782C52.8086 62.1378 52.9071 52.2781 53.022 52.2781C53.137 52.2781 53.2355 62.1296 53.2355 74.3782C53.2355 86.6268 53.137 96.47 53.022 96.47Z" fill="#E0E0E0"/>
<path d="M100.178 96.1252C100.178 96.1252 100.432 96.1252 100.917 96.0267C101.63 95.8675 102.279 95.4986 102.78 94.9676C103.147 94.5764 103.427 94.112 103.601 93.6049C103.764 92.9812 103.819 92.3344 103.765 91.692C103.765 90.2718 103.765 88.6463 103.765 86.8156C103.765 79.4763 103.724 68.8778 103.7 55.7754C103.716 55.3744 103.692 54.9727 103.626 54.5768C103.499 53.9816 103.219 53.4297 102.815 52.9749C102.411 52.5201 101.895 52.1782 101.319 51.9826C100.489 51.7992 99.6371 51.7411 98.7903 51.8102H84.9245H60.2959H3.92933C3.33996 51.8099 2.76035 51.9606 2.24583 52.2481C1.7313 52.5355 1.29904 52.95 0.990324 53.4521C0.69183 53.9498 0.522513 54.5142 0.497761 55.094V64.2969C0.497761 69.1733 0.497761 73.9677 0.497761 78.68V92.554C0.526413 93.3613 0.838238 94.1327 1.3786 94.7331C1.91897 95.3335 2.65339 95.7246 3.45318 95.8379C3.96217 95.9035 4.54505 95.8379 5.09508 95.8379H11.6627L57.7017 95.8871L88.7419 95.9528H97.1813H99.3732H100.12H99.3732H97.1813L88.7419 95.9938L57.7017 96.0595L11.6627 96.1088H5.09508C4.53172 96.1371 3.96729 96.1371 3.40393 96.1088C2.51616 95.9824 1.70101 95.5482 1.10081 94.8819C0.500609 94.2157 0.153501 93.3598 0.120117 92.4637C0.120117 87.9266 0.120117 83.2964 0.120117 78.5732V55.1597C0.154193 54.1593 0.575707 53.2113 1.29565 52.5158C2.0156 51.8204 2.97763 51.432 3.9786 51.4325H60.3452H84.9737H96.1223H100.087C100.536 51.4264 100.983 51.4958 101.409 51.6378C102.037 51.8511 102.598 52.2247 103.037 52.7214C103.476 53.2181 103.778 53.8209 103.913 54.4701C103.985 54.8847 104.012 55.3057 103.995 55.7261C103.995 68.8614 103.938 79.427 103.921 86.7663C103.921 88.5971 103.921 90.2225 103.921 91.6428C103.967 92.2978 103.901 92.9559 103.724 93.5884C103.553 94.1045 103.273 94.5777 102.903 94.9759C102.387 95.5098 101.719 95.8736 100.99 96.0185C100.727 96.0951 100.453 96.131 100.178 96.1252V96.1252Z" fill="#E0E0E0"/>
<path d="M75.9022 61.8422C75.9022 61.9572 71.6578 62.0557 66.4284 62.0557C61.1989 62.0557 56.9546 61.9572 56.9546 61.8422C56.9546 61.7273 61.1989 61.6288 66.4284 61.6288C71.6578 61.6288 75.9022 61.7191 75.9022 61.8422Z" fill="#263238"/>
<path d="M94.1686 67.6792C94.1686 67.7941 85.7949 67.8926 75.4673 67.8926C65.1397 67.8926 56.7578 67.7941 56.7578 67.6792C56.7578 67.5643 65.1315 67.4657 75.4673 67.4657C85.8031 67.4657 94.1686 67.5643 94.1686 67.6792Z" fill="#E0E0E0"/>
<path d="M94.1686 71.1025C94.1686 71.2257 85.7949 71.316 75.4673 71.316C65.1397 71.316 56.7578 71.2257 56.7578 71.1025C56.7578 70.9794 65.1315 70.8891 75.4673 70.8891C85.8031 70.8891 94.1686 70.9876 94.1686 71.1025Z" fill="#E0E0E0"/>
<path d="M90.2358 87.9813C90.1921 87.5927 90.0318 87.2264 89.776 86.9305C89.5347 86.6303 89.204 86.4146 88.8319 86.3148C88.6357 86.2668 88.4318 86.2595 88.2327 86.2934C88.0336 86.3273 87.8436 86.4017 87.6744 86.5119C87.4724 86.6438 87.3038 86.8209 87.1818 87.029C87.0809 86.8354 86.9344 86.6691 86.7549 86.5447C86.5912 86.4252 86.4048 86.3403 86.2073 86.2952C86.0097 86.25 85.805 86.2455 85.6056 86.282C85.2341 86.367 84.8966 86.5614 84.6369 86.8402C84.3667 87.1236 84.1867 87.4807 84.1197 87.8664C84.0431 88.3593 84.1296 88.8638 84.3659 89.3031C84.6439 89.7467 85.0203 90.1203 85.466 90.3949C86.1967 90.8629 87.1572 91.4458 87.1572 91.4458C87.1572 91.4458 87.9781 90.8547 88.7498 90.4278C89.2094 90.1792 89.6055 89.8281 89.9074 89.4016C90.1663 88.9757 90.2815 88.4777 90.2358 87.9813Z" fill="#27AE7B"/>
<path d="M87.1577 91.5689H87.1002C87.1002 91.5689 86.1315 90.986 85.4173 90.5181C84.9499 90.2432 84.5578 89.8568 84.2762 89.3934C84.0318 88.933 83.9399 88.407 84.0135 87.8911C84.0848 87.4855 84.2764 87.1108 84.5635 86.8156C84.8355 86.5163 85.1943 86.3096 85.5897 86.2245C85.8027 86.1863 86.0211 86.1906 86.2324 86.2371C86.4438 86.2836 86.6438 86.3714 86.8211 86.4954C86.9624 86.6054 87.0868 86.7354 87.1905 86.8813C87.3028 86.7141 87.4481 86.5716 87.6174 86.4626C87.9871 86.2325 88.433 86.1587 88.8571 86.2574C89.2495 86.3607 89.598 86.5882 89.8504 86.9059C90.1255 87.2145 90.2952 87.6027 90.3348 88.0142C90.3866 88.5303 90.2684 89.0492 89.9982 89.4919C89.6891 89.9378 89.2782 90.3037 88.7996 90.5591C88.0608 90.9778 87.2234 91.5607 87.2152 91.5689H87.1577ZM85.877 86.3559C85.7951 86.3478 85.7126 86.3478 85.6307 86.3559C85.2769 86.4355 84.956 86.6218 84.7113 86.8895C84.4511 87.1539 84.279 87.4922 84.2187 87.8582C84.1488 88.3289 84.2323 88.8096 84.4568 89.2292C84.7216 89.6612 85.088 90.0219 85.524 90.28C86.1397 90.6741 86.936 91.1667 87.1659 91.298C87.3711 91.1585 88.0772 90.6741 88.7093 90.3129C89.1606 90.0799 89.547 89.7386 89.834 89.3195C90.0868 88.9157 90.1967 88.4387 90.146 87.9649V87.9649C90.1104 87.5959 89.958 87.2479 89.7109 86.9716C89.488 86.6845 89.1762 86.4795 88.8242 86.3887C88.6421 86.3441 88.4528 86.3372 88.2679 86.3682C88.083 86.3993 87.9063 86.4677 87.7488 86.5693C87.5598 86.6927 87.4024 86.8585 87.289 87.0537L87.1987 87.2179L87.1166 87.0537C87.0165 86.876 86.8793 86.7221 86.7144 86.6022C86.4685 86.4332 86.1752 86.3469 85.877 86.3559V86.3559Z" fill="#263238"/>
<path d="M98.8643 90.4278H97.6411H94.6118L94.5461 89.927C94.3573 88.4575 94.1931 87.1522 94.0863 86.2902H93.2654H94.0863L94.5707 89.9188C94.5707 90.0912 94.6118 90.2636 94.6364 90.4196L97.6657 90.4606H98.5605H98.8889L98.8643 90.4278Z" fill="#263238"/>
<path d="M97.6329 90.5016H94.5872C94.5733 90.5018 94.5598 90.4969 94.5492 90.4878C94.5386 90.4787 94.5317 90.4662 94.5297 90.4524L94.0043 86.3476H93.0602C92.9781 86.3476 92.9207 86.3476 92.9207 86.282C92.9207 86.2163 92.9781 86.2163 93.0602 86.2163H94.0782C94.0782 86.2163 94.1521 86.2163 94.1521 86.2737L94.6447 90.0009C94.6447 90.1076 94.6446 90.2225 94.6857 90.3292L98.7905 90.3867C98.889 90.3867 98.9382 90.3867 98.9382 90.4606C98.9382 90.5345 98.889 90.5181 98.7905 90.5263H97.6411L97.6329 90.5016Z" fill="#263238"/>
<path d="M94.505 89.4837H95.7365H98.8725C98.971 88.9501 99.0778 88.3836 99.1845 87.7925C99.2419 87.4888 99.2994 87.1932 99.3487 86.9059H95.6462H94.5543H95.6462H99.3487C99.2994 87.185 99.2419 87.4888 99.1845 87.7843C99.0695 88.3754 98.9628 88.9501 98.8643 89.4755L95.7283 89.4344H94.817H94.4968L94.505 89.4837Z" fill="#263238"/>
<path d="M98.897 89.6397L94.546 89.574C94.4803 89.574 94.4639 89.533 94.4639 89.5083C94.4595 89.495 94.4595 89.4806 94.4639 89.4673C94.4639 89.4673 94.4639 89.4673 94.5295 89.4673H95.7446H98.8067L99.25 87.0783L94.2012 87.0044C94.2012 87.0044 94.1108 87.0044 94.1108 86.9387C94.1108 86.8731 94.1765 86.8731 94.2012 86.8731H95.6625H99.3978H99.447C99.4507 86.8808 99.4526 86.8892 99.4526 86.8977C99.4526 86.9062 99.4507 86.9146 99.447 86.9223L99.2746 87.8418C99.209 88.2194 99.1351 88.5889 99.0694 88.9419L98.9545 89.5494C98.9545 89.5494 98.9298 89.6397 98.897 89.6397Z" fill="#263238"/>
<path d="M95.6708 91.5525C95.6708 91.5525 95.6708 91.5525 95.6708 91.454C95.6454 91.3645 95.5904 91.2864 95.5148 91.2323C95.4557 91.1866 95.3851 91.1582 95.3108 91.1503C95.2365 91.1424 95.1614 91.1554 95.0941 91.1878C95.0268 91.2202 94.9698 91.2707 94.9295 91.3337C94.8893 91.3966 94.8674 91.4696 94.8662 91.5443C94.8673 91.6262 94.8929 91.706 94.9397 91.7734C94.9865 91.8407 95.0525 91.8924 95.129 91.9219C95.1911 91.9455 95.2581 91.9534 95.324 91.9448C95.3899 91.9362 95.4526 91.9114 95.5066 91.8727C95.5821 91.8221 95.6373 91.7465 95.6626 91.6592C95.6626 91.5935 95.6626 91.5525 95.6626 91.5525C95.6699 91.5877 95.6699 91.624 95.6626 91.6592C95.6398 91.7565 95.5849 91.8433 95.5066 91.9055C95.4403 91.9567 95.3609 91.9881 95.2775 91.996C95.1941 92.0039 95.1102 91.9881 95.0355 91.9503C94.9607 91.9125 94.8982 91.8543 94.8552 91.7824C94.8122 91.7106 94.7904 91.628 94.7924 91.5443C94.7928 91.4515 94.8223 91.3611 94.8768 91.286C94.9313 91.2109 95.008 91.1548 95.0961 91.1256C95.1664 91.1011 95.2418 91.095 95.3151 91.1079C95.3884 91.1208 95.4572 91.1524 95.5148 91.1995C95.5927 91.2606 95.6453 91.3483 95.6626 91.4458C95.6726 91.4804 95.6754 91.5167 95.6708 91.5525V91.5525Z" fill="#263238"/>
<path d="M95.252 92.0615C95.1952 92.0732 95.1365 92.0732 95.0796 92.0615C94.9795 92.0268 94.8929 91.9612 94.8325 91.8741C94.772 91.7871 94.7407 91.6831 94.743 91.5771C94.7442 91.4718 94.778 91.3695 94.8398 91.2842C94.9015 91.199 94.9882 91.1349 95.0878 91.101C95.1687 91.0711 95.256 91.0629 95.341 91.0773C95.426 91.0917 95.5057 91.1282 95.5722 91.1831C95.6595 91.2575 95.72 91.3584 95.7446 91.4704C95.7487 91.5086 95.7487 91.5471 95.7446 91.5853C95.7535 91.6259 95.7535 91.6679 95.7446 91.7085C95.725 91.8201 95.6633 91.92 95.5722 91.9876C95.4766 92.0469 95.364 92.0729 95.252 92.0615V92.0615ZM95.252 91.2405C95.2141 91.233 95.175 91.233 95.1371 91.2405C95.0735 91.2648 95.0185 91.3074 94.979 91.3629C94.9396 91.4185 94.9174 91.4844 94.9154 91.5525C94.9152 91.621 94.9353 91.6881 94.9733 91.7451C95.0114 91.8021 95.0655 91.8466 95.1289 91.8727C95.1829 91.8925 95.2409 91.8991 95.2981 91.892C95.3552 91.8848 95.4098 91.8641 95.4573 91.8316C95.5229 91.7871 95.5697 91.7198 95.5886 91.6428C95.5915 91.621 95.5915 91.5989 95.5886 91.5771C95.5949 91.5529 95.5949 91.5275 95.5886 91.5032C95.569 91.4265 95.5224 91.3595 95.4573 91.3144C95.4313 91.2852 95.3998 91.2615 95.3645 91.2446C95.3293 91.2277 95.2911 91.2179 95.252 91.2159V91.2405Z" fill="#263238"/>
<path d="M98.4044 91.5771C98.4044 91.5771 98.4044 91.5771 98.4044 91.4786C98.375 91.3912 98.3208 91.3142 98.2484 91.2569C98.1942 91.2187 98.1319 91.1936 98.0664 91.1836C98.0008 91.1736 97.9339 91.1791 97.8708 91.1995C97.7949 91.2275 97.7293 91.2778 97.6824 91.3437C97.6356 91.4096 97.6097 91.4881 97.6081 91.5689C97.6049 91.6507 97.6279 91.7314 97.6737 91.7993C97.7194 91.8672 97.7856 91.9187 97.8626 91.9465C97.9242 91.9725 97.9917 91.9817 98.0581 91.973C98.1244 91.9643 98.1873 91.9382 98.2402 91.8973C98.3154 91.8445 98.3726 91.77 98.4044 91.6838C98.4044 91.6182 98.4044 91.5771 98.4044 91.5771C98.4117 91.6123 98.4117 91.6486 98.4044 91.6838C98.3974 91.7336 98.3799 91.7814 98.353 91.8238C98.3261 91.8663 98.2904 91.9025 98.2484 91.9301C98.1912 91.9781 98.122 92.0096 98.0482 92.0212C97.9744 92.0327 97.8989 92.024 97.8297 91.9958C97.7411 91.9659 97.6645 91.9082 97.6113 91.8313C97.5581 91.7544 97.531 91.6624 97.5342 91.5689C97.5346 91.4761 97.5642 91.3858 97.6187 91.3107C97.6732 91.2356 97.7498 91.1794 97.8379 91.1502C97.9081 91.1249 97.9837 91.1184 98.0571 91.1313C98.1306 91.1443 98.1994 91.1763 98.2566 91.2241C98.3345 91.2852 98.3871 91.3729 98.4044 91.4704C98.4119 91.5056 98.4119 91.5419 98.4044 91.5771Z" fill="#263238"/>
<path d="M97.9693 92.0861C97.9125 92.0978 97.8538 92.0978 97.7969 92.0861C97.6974 92.0512 97.6112 91.9862 97.5503 91.9002C97.4893 91.8142 97.4565 91.7113 97.4565 91.6059C97.4565 91.5004 97.4893 91.3976 97.5503 91.3115C97.6112 91.2255 97.6974 91.1605 97.7969 91.1256C97.8778 91.0957 97.9651 91.0875 98.0501 91.1019C98.1351 91.1163 98.2148 91.1528 98.2813 91.2077C98.3686 91.2821 98.4291 91.383 98.4537 91.495C98.4619 91.5357 98.4619 91.5775 98.4537 91.6182C98.4578 91.6564 98.4578 91.6949 98.4537 91.7331C98.4259 91.8435 98.3624 91.9416 98.2731 92.0122C98.1825 92.0692 98.0759 92.0951 97.9693 92.0861V92.0861ZM97.9693 91.2652C97.9314 91.2576 97.8924 91.2576 97.8544 91.2652C97.7907 91.2918 97.736 91.3361 97.6967 91.3928C97.6574 91.4496 97.6352 91.5164 97.6327 91.5853C97.6318 91.653 97.6519 91.7193 97.6901 91.7751C97.7283 91.8309 97.7828 91.8736 97.8462 91.8973C97.8993 91.9219 97.9582 91.9312 98.0163 91.9239C98.0744 91.9166 98.1292 91.8932 98.1746 91.8562C98.2381 91.8132 98.2846 91.7493 98.3059 91.6756C98.3122 91.6514 98.3122 91.626 98.3059 91.6017V91.6017C98.3042 91.5771 98.3042 91.5525 98.3059 91.5279C98.2799 91.4543 98.2345 91.3891 98.1746 91.339C98.1199 91.2877 98.0514 91.2535 97.9776 91.2405L97.9693 91.2652Z" fill="#263238"/>
<path d="M100.342 86.5611C100.34 86.8014 100.268 87.0358 100.133 87.2347C99.9979 87.4336 99.8071 87.588 99.5845 87.6785C99.3618 87.769 99.1174 87.7914 98.882 87.7429C98.6467 87.6944 98.431 87.5772 98.2622 87.4062C98.0934 87.2351 97.9792 87.0178 97.9339 86.7818C97.8886 86.5458 97.9143 86.3017 98.0078 86.0803C98.1012 85.8589 98.2582 85.6702 98.4589 85.5381C98.6596 85.4059 98.895 85.3363 99.1353 85.3379C99.2949 85.3389 99.4527 85.3714 99.5997 85.4335C99.7467 85.4956 99.88 85.586 99.992 85.6995C100.104 85.8131 100.193 85.9477 100.253 86.0955C100.313 86.2433 100.343 86.4015 100.342 86.5611Z" fill="#263238"/>
<path d="M99.1598 87.2096C99.145 87.0047 99.145 86.7989 99.1598 86.5939C99.1553 86.3794 99.1718 86.1649 99.2091 85.9536C99.2392 86.166 99.2392 86.3815 99.2091 86.5939C99.2078 86.7998 99.194 87.0054 99.168 87.2096C99.1653 87.2098 99.1626 87.2098 99.1598 87.2096V87.2096Z" fill="white"/>
<path d="M99.8162 86.635C99.6032 86.6552 99.3888 86.6552 99.1758 86.635C98.964 86.6407 98.7521 86.6242 98.5437 86.5857C98.7535 86.5576 98.9661 86.5576 99.1758 86.5857C99.3904 86.5784 99.6052 86.5949 99.8162 86.635V86.635Z" fill="white"/>
<path d="M75.2369 89.3852C72.369 89.6016 69.492 89.6728 66.6169 89.5986C63.7445 89.6727 60.8703 89.6015 58.0051 89.3852C58.0051 89.2702 61.8636 89.1717 66.6169 89.1717C71.3702 89.1717 75.2369 89.2702 75.2369 89.3852Z" fill="#263238"/>
<path d="M100.161 102.43H3.95395C1.94539 102.43 0.317139 104.058 0.317139 106.067V143.272C0.317139 145.281 1.94539 146.909 3.95395 146.909H100.161C102.17 146.909 103.798 145.281 103.798 143.272V106.067C103.798 104.058 102.17 102.43 100.161 102.43Z" fill="#F5F5F5"/>
<path d="M3.59265 102.504H52.9072V146.909H3.59265C2.72173 146.909 1.88647 146.563 1.27064 145.947C0.654807 145.332 0.308838 144.496 0.308838 143.625V105.78C0.311012 104.91 0.657936 104.077 1.27353 103.463C1.88913 102.849 2.72315 102.504 3.59265 102.504V102.504Z" fill="white"/>
<path d="M53.022 147.254C52.9071 147.254 52.8086 137.362 52.8086 125.162C52.8086 112.963 52.9071 103.062 53.022 103.062C53.137 103.062 53.2355 112.955 53.2355 125.162C53.2355 137.37 53.137 147.254 53.022 147.254Z" fill="#E0E0E0"/>
<path d="M100.178 146.95C100.178 146.95 100.432 146.95 100.917 146.852C101.532 146.712 102.102 146.416 102.569 145.992C103.037 145.567 103.387 145.029 103.585 144.43C103.747 143.803 103.803 143.154 103.749 142.509C103.749 141.097 103.749 139.471 103.749 137.641C103.749 130.301 103.708 119.703 103.683 106.601C103.701 106.199 103.676 105.798 103.609 105.402C103.482 104.807 103.203 104.255 102.799 103.8C102.394 103.345 101.879 103.003 101.302 102.808C100.473 102.621 99.6211 102.561 98.7739 102.627H84.9245H60.2959H3.92933C3.04365 102.624 2.19134 102.965 1.55143 103.577C0.911534 104.189 0.533863 105.026 0.497761 105.911V115.114C0.497761 119.982 0.497761 124.785 0.497761 129.497V143.371C0.520457 143.905 0.667307 144.426 0.926664 144.894C1.18602 145.361 1.55074 145.762 1.99189 146.064C2.4282 146.364 2.9286 146.558 3.45318 146.63C3.96217 146.688 4.54505 146.63 5.09508 146.63H11.6627L57.7017 146.671L88.7419 146.745H97.1813H99.3732H100.12H99.3732H97.1813L88.7419 146.786L57.7017 146.852L11.6627 146.901H5.09508C4.53104 146.92 3.9664 146.906 3.40393 146.86C2.51553 146.739 1.6987 146.307 1.09779 145.641C0.49688 144.976 0.150581 144.119 0.120117 143.223C0.120117 138.686 0.120117 134.056 0.120117 129.333V105.903C0.156273 104.904 0.578697 103.958 1.29842 103.264C2.01814 102.57 2.979 102.183 3.9786 102.184H60.3452H84.9737H100.087C100.536 102.178 100.983 102.247 101.409 102.389C102.036 102.602 102.596 102.975 103.035 103.47C103.474 103.965 103.776 104.566 103.913 105.213C103.985 105.63 104.012 106.054 103.995 106.477C103.995 119.613 103.938 130.178 103.921 137.518C103.921 139.348 103.921 140.974 103.921 142.386C103.968 143.044 103.902 143.705 103.724 144.34C103.551 144.855 103.272 145.328 102.903 145.727C102.384 146.258 101.718 146.621 100.99 146.77C100.729 146.865 100.455 146.926 100.178 146.95Z" fill="#E0E0E0"/>
<path d="M75.9022 112.618C75.9022 112.741 71.6578 112.84 66.4284 112.84C61.1989 112.84 56.9546 112.741 56.9546 112.618C56.9546 112.495 61.1989 112.405 66.4284 112.405C71.6578 112.405 75.9022 112.47 75.9022 112.618Z" fill="#263238"/>
<path d="M94.1686 118.463C94.1686 118.578 85.7949 118.677 75.4673 118.677C65.1397 118.677 56.7578 118.578 56.7578 118.463C56.7578 118.348 65.1315 118.25 75.4673 118.25C85.8031 118.25 94.1686 118.34 94.1686 118.463Z" fill="#E0E0E0"/>
<path d="M94.1686 121.887C94.1686 122.002 85.7949 122.1 75.4673 122.1C65.1397 122.1 56.7578 122.002 56.7578 121.887C56.7578 121.772 65.1315 121.673 75.4673 121.673C85.8031 121.673 94.1686 121.772 94.1686 121.887Z" fill="#E0E0E0"/>
<path d="M90.2363 138.741C90.1911 138.353 90.031 137.987 89.7765 137.69C89.5321 137.395 89.2023 137.183 88.8324 137.082C88.5183 137.005 88.1876 137.034 87.891 137.163C87.5944 137.292 87.3483 137.514 87.1905 137.797C87.0899 137.601 86.9434 137.432 86.7636 137.304C86.5993 137.186 86.4126 137.103 86.2151 137.059C86.0175 137.015 85.8131 137.012 85.6143 137.05C85.24 137.128 84.9005 137.323 84.6455 137.608C84.3738 137.89 84.1935 138.248 84.1284 138.634C84.0524 139.127 84.1389 139.631 84.3746 140.071C84.6526 140.514 85.029 140.888 85.4747 141.163L87.1659 142.213C87.1659 142.213 87.9868 141.614 88.7585 141.195C89.2204 140.947 89.617 140.592 89.9161 140.161C90.1722 139.734 90.2844 139.236 90.2363 138.741V138.741Z" fill="#27AE7B"/>
<path d="M87.1577 142.345H87.1002C87.1002 142.345 86.1315 141.754 85.4173 141.294C84.9527 141.015 84.5615 140.63 84.2762 140.169C84.0318 139.709 83.9399 139.183 84.0135 138.667C84.0833 138.261 84.2752 137.886 84.5635 137.591C84.8347 137.29 85.1935 137.08 85.5897 136.992C85.8032 136.955 86.0219 136.961 86.2333 137.009C86.4446 137.057 86.6444 137.146 86.8211 137.271C86.9623 137.378 87.0867 137.505 87.1905 137.649C87.3053 137.486 87.4502 137.347 87.6174 137.238C87.7999 137.123 88.0033 137.045 88.216 137.008C88.4287 136.972 88.6465 136.977 88.8571 137.025C89.2476 137.133 89.5949 137.359 89.8504 137.674C90.1121 137.974 90.278 138.345 90.3266 138.741C90.379 139.26 90.2608 139.781 89.99 140.227C89.6804 140.67 89.2695 141.033 88.7914 141.286C88.0525 141.704 87.2152 142.296 87.207 142.304L87.1577 142.345ZM85.877 137.14H85.6307C85.2755 137.216 84.9535 137.403 84.7113 137.674C84.4517 137.935 84.2796 138.271 84.2187 138.634C84.1482 139.105 84.2317 139.586 84.4568 140.005C84.7211 140.44 85.0874 140.803 85.524 141.064C86.1397 141.458 86.936 141.943 87.1659 142.082C87.3711 141.943 88.0772 141.458 88.7093 141.097C89.1571 140.859 89.5424 140.518 89.834 140.104C90.088 139.697 90.1979 139.217 90.146 138.741C90.1087 138.375 89.9564 138.03 89.7109 137.756C89.488 137.469 89.1762 137.264 88.8242 137.173C88.5309 137.101 88.2222 137.128 87.9451 137.248C87.6681 137.368 87.4377 137.575 87.289 137.838L87.1987 137.994L87.1166 137.838C87.0167 137.658 86.8795 137.501 86.7144 137.378C86.4678 137.211 86.1744 137.128 85.877 137.14V137.14Z" fill="#263238"/>
<path d="M98.8643 141.204H97.6411H94.6118L94.5461 140.703C94.3573 139.233 94.1931 137.92 94.0863 137.066H93.2654H94.0863C94.2013 137.928 94.3737 139.233 94.5707 140.703C94.5707 140.875 94.6118 141.039 94.6364 141.204H97.6657H98.5605H98.8889H98.8643Z" fill="#263238"/>
<path d="M97.6329 141.286H94.5872C94.5872 141.286 94.5297 141.286 94.5297 141.237L94.0043 137.132H93.0602C92.9781 137.132 92.9207 137.132 92.9207 137.058C92.9207 136.984 92.9781 137 93.0602 136.992H94.0782C94.0782 136.992 94.1521 136.992 94.1521 137.041L94.6447 140.777C94.6447 140.892 94.6446 140.998 94.6857 141.097L98.7905 141.163C98.889 141.163 98.9382 141.163 98.9382 141.228C98.9382 141.294 98.889 141.294 98.7905 141.294H97.6411L97.6329 141.286Z" fill="#263238"/>
<path d="M94.505 140.292H95.7365H98.8725C98.971 139.767 99.0778 139.201 99.1845 138.609L99.3487 137.723H95.6462H94.5543H95.6462H99.3487C99.2994 138.01 99.2419 138.306 99.1845 138.609C99.0695 139.201 98.9628 139.767 98.8643 140.301L95.7283 140.26H94.817H94.4968L94.505 140.292Z" fill="#263238"/>
<path d="M98.897 140.424L95.761 140.383H94.8497H94.546C94.4885 140.383 94.4639 140.383 94.4639 140.317C94.4595 140.304 94.4595 140.289 94.4639 140.276C94.4739 140.27 94.4852 140.267 94.4967 140.267C94.5082 140.267 94.5195 140.27 94.5295 140.276H95.7446H98.8067L99.25 137.879L95.1452 137.83H94.5706H94.2012C94.1437 137.83 94.1108 137.83 94.1108 137.772C94.1108 137.715 94.1765 137.706 94.1929 137.706H94.5706H96.7461H99.3978H99.447C99.4514 137.714 99.4536 137.722 99.4536 137.731C99.4536 137.74 99.4514 137.748 99.447 137.756L99.2746 138.675L98.9545 140.383C98.9508 140.395 98.9432 140.406 98.9328 140.413C98.9224 140.421 98.9098 140.424 98.897 140.424Z" fill="#263238"/>
<path d="M95.6707 142.337C95.6707 142.337 95.6707 142.296 95.6707 142.238C95.6453 142.149 95.5903 142.07 95.5147 142.016C95.4625 141.974 95.4001 141.947 95.3337 141.936C95.2673 141.926 95.1994 141.934 95.137 141.959C95.0597 141.986 94.9923 142.035 94.9439 142.101C94.8955 142.167 94.8683 142.247 94.8661 142.328C94.8683 142.41 94.8943 142.489 94.941 142.557C94.9876 142.624 95.053 142.676 95.1288 142.706C95.191 142.73 95.258 142.737 95.3239 142.729C95.3898 142.72 95.4525 142.696 95.5065 142.657C95.5847 142.605 95.6404 142.526 95.6625 142.435C95.6625 142.378 95.6625 142.337 95.6625 142.337C95.6698 142.372 95.6698 142.408 95.6625 142.443C95.638 142.54 95.5834 142.626 95.5065 142.69C95.4471 142.733 95.378 142.762 95.3051 142.774C95.2323 142.785 95.1577 142.779 95.0878 142.755C95.0006 142.723 94.9254 142.665 94.8725 142.589C94.8196 142.512 94.7916 142.421 94.7922 142.328C94.7922 142.245 94.8158 142.163 94.8605 142.092C94.9052 142.021 94.969 141.964 95.0446 141.928C95.1202 141.892 95.2045 141.878 95.2877 141.888C95.3709 141.898 95.4496 141.931 95.5147 141.984C95.5938 142.044 95.6467 142.132 95.6625 142.23C95.6725 142.264 95.6753 142.301 95.6707 142.337Z" fill="#263238"/>
<path d="M95.2521 142.846C95.1952 142.857 95.1365 142.857 95.0797 142.846C94.9802 142.811 94.894 142.746 94.833 142.66C94.772 142.574 94.7393 142.471 94.7393 142.365C94.7393 142.26 94.772 142.157 94.833 142.071C94.894 141.985 94.9802 141.92 95.0797 141.885C95.1605 141.855 95.2478 141.847 95.3328 141.861C95.4178 141.876 95.4975 141.912 95.564 141.967C95.6528 142.04 95.7136 142.142 95.7364 142.254C95.7446 142.292 95.7446 142.332 95.7364 142.369C95.7452 142.407 95.7452 142.447 95.7364 142.484C95.7171 142.598 95.6556 142.701 95.564 142.772C95.4707 142.829 95.3613 142.855 95.2521 142.846V142.846ZM95.2521 142.025H95.1371C95.0729 142.048 95.0172 142.09 94.9776 142.146C94.938 142.202 94.9164 142.268 94.9155 142.337C94.9162 142.405 94.9368 142.471 94.9747 142.528C95.0126 142.585 95.0662 142.63 95.1289 142.657C95.183 142.677 95.241 142.683 95.2981 142.676C95.3552 142.669 95.4098 142.648 95.4573 142.616C95.5201 142.568 95.5661 142.502 95.5886 142.427C95.5908 142.402 95.5908 142.378 95.5886 142.353V142.353C95.5955 142.332 95.5955 142.309 95.5886 142.287C95.5809 142.249 95.5653 142.212 95.5427 142.179C95.5201 142.147 95.491 142.119 95.4573 142.099C95.4008 142.049 95.3274 142.022 95.2521 142.025V142.025Z" fill="#263238"/>
<path d="M98.4047 142.361C98.4047 142.361 98.4047 142.361 98.4047 142.263C98.3793 142.173 98.3243 142.095 98.2487 142.041C98.1955 142.001 98.1331 141.975 98.0672 141.965C98.0013 141.955 97.9339 141.961 97.8711 141.984C97.7953 142.012 97.7296 142.062 97.6828 142.128C97.6359 142.194 97.61 142.272 97.6084 142.353C97.6056 142.428 97.6241 142.501 97.6617 142.566C97.6992 142.63 97.7543 142.683 97.8205 142.717C97.8867 142.752 97.9614 142.767 98.0357 142.76C98.1101 142.754 98.1811 142.727 98.2405 142.681C98.3179 142.627 98.3755 142.549 98.4047 142.46C98.4047 142.402 98.4047 142.361 98.4047 142.361C98.412 142.396 98.412 142.433 98.4047 142.468C98.3869 142.567 98.3309 142.656 98.2487 142.714C98.1903 142.76 98.1212 142.79 98.0479 142.801C97.9747 142.813 97.8997 142.806 97.8301 142.78C97.7422 142.749 97.6663 142.691 97.6133 142.614C97.5602 142.538 97.5326 142.446 97.5345 142.353C97.535 142.26 97.5645 142.17 97.619 142.095C97.6735 142.02 97.7502 141.964 97.8383 141.934C97.9084 141.909 97.984 141.902 98.0575 141.915C98.1309 141.928 98.1997 141.96 98.257 142.008C98.3348 142.069 98.3874 142.157 98.4047 142.254C98.412 142.29 98.412 142.326 98.4047 142.361V142.361Z" fill="#263238"/>
<path d="M97.9694 142.846C97.9126 142.857 97.8539 142.857 97.797 142.846C97.6983 142.809 97.6131 142.743 97.5529 142.656C97.4928 142.569 97.4605 142.467 97.4604 142.361C97.4616 142.256 97.4954 142.154 97.5572 142.068C97.6189 141.983 97.7056 141.919 97.8052 141.885C97.8862 141.856 97.9733 141.848 98.0582 141.863C98.143 141.877 98.2227 141.913 98.2896 141.967C98.3769 142.042 98.4374 142.142 98.462 142.254C98.4661 142.293 98.4661 142.331 98.462 142.369C98.4661 142.41 98.4661 142.452 98.462 142.493C98.4342 142.603 98.3707 142.701 98.2814 142.772C98.1886 142.83 98.0788 142.856 97.9694 142.846V142.846ZM97.9694 142.025H97.8545C97.7903 142.048 97.7346 142.09 97.695 142.146C97.6554 142.202 97.6337 142.268 97.6328 142.337C97.6336 142.405 97.6542 142.471 97.6921 142.528C97.73 142.585 97.7836 142.63 97.8463 142.657C97.9003 142.677 97.9583 142.683 98.0155 142.676C98.0726 142.669 98.1272 142.648 98.1747 142.616C98.2388 142.57 98.2851 142.503 98.306 142.427C98.3113 142.405 98.3113 142.383 98.306 142.361C98.3043 142.337 98.3043 142.312 98.306 142.287C98.282 142.213 98.2363 142.147 98.1747 142.098C98.1186 142.053 98.0495 142.028 97.9777 142.025H97.9694Z" fill="#263238"/>
<path d="M100.342 137.337C100.34 137.577 100.268 137.812 100.133 138.011C99.9979 138.209 99.8071 138.364 99.5845 138.454C99.3618 138.545 99.1174 138.567 98.882 138.519C98.6467 138.47 98.431 138.353 98.2622 138.182C98.0934 138.011 97.9792 137.794 97.9339 137.558C97.8886 137.322 97.9143 137.078 98.0078 136.856C98.1012 136.635 98.2582 136.446 98.4589 136.314C98.6596 136.182 98.895 136.112 99.1353 136.114C99.4569 136.118 99.7638 136.249 99.9897 136.478C100.216 136.707 100.342 137.015 100.342 137.337Z" fill="#263238"/>
<path d="M99.1596 137.994C99.145 137.789 99.145 137.583 99.1596 137.378C99.1551 137.163 99.1716 136.949 99.2089 136.738C99.239 136.95 99.239 137.166 99.2089 137.378C99.2075 137.584 99.1938 137.79 99.1678 137.994C99.1651 137.994 99.1624 137.994 99.1596 137.994Z" fill="white"/>
<path d="M99.8162 137.411C99.6036 137.439 99.3884 137.439 99.1758 137.411C98.9636 137.417 98.7514 137.397 98.5437 137.353C98.9667 137.31 99.3931 137.31 99.8162 137.353V137.411Z" fill="white"/>
<path d="M75.2369 140.169C75.2369 140.284 71.3784 140.383 66.6169 140.383C61.8554 140.383 58.0051 140.284 58.0051 140.169C58.0051 140.054 61.8636 139.956 66.6169 139.956C71.3702 139.956 75.2369 140.054 75.2369 140.169Z" fill="#263238"/>
<path d="M13.7972 62.811C13.7972 62.811 7.22958 77.9083 7.58259 86.1096L24.6009 91.2323L27.5071 85.7073L29.9699 91.2323C29.9699 91.2323 43.1052 88.0224 46.6845 84.8125C46.6845 84.8125 43.2037 67.162 40.4863 62.8766C40.4863 62.8766 42.1775 59.3137 40.864 59.1331C39.5505 58.9525 37.416 59.3137 35.8069 59.1331C34.1978 58.9525 33.6642 59.3876 31.7021 59.0839C29.7401 58.7801 29.9125 61.2758 27.5071 60.7258C25.1017 60.1757 25.0935 59.6749 22.5814 59.0428C20.0693 58.4107 18.6736 60.3974 17.081 59.8638C15.943 59.5312 14.7824 59.2815 13.6084 59.1167C13.1688 59.0404 12.7166 59.1359 12.3454 59.3834C11.9741 59.6309 11.7121 60.0115 11.6135 60.4466C11.5819 60.5299 11.5689 60.6191 11.5751 60.7079C11.5814 60.7968 11.6069 60.8832 11.6498 60.9613C11.6927 61.0393 11.7521 61.1071 11.8238 61.16C11.8954 61.2129 11.9777 61.2496 12.065 61.2676C12.448 61.3846 12.8011 61.5831 13.1001 61.8496C13.3991 62.116 13.6369 62.4439 13.7972 62.811Z" fill="#263238"/>
<path d="M36.9645 59.3712C37.052 60.0389 36.9255 60.7172 36.6033 61.3086C36.3536 61.9334 35.918 62.4664 35.3555 62.8356C35.7282 62.308 36.0708 61.7599 36.3817 61.1937C36.6131 60.5987 36.8077 59.99 36.9645 59.3712V59.3712Z" fill="#263238"/>
<path d="M27.3102 70.7989C27.21 70.7129 27.1192 70.6165 27.0393 70.5115L26.3332 69.6906L23.8704 66.7762H24.0346L20.7508 70.8809V70.725L20.8411 70.8399L24.0592 75.0185H23.895L26.3579 71.9728C26.6452 71.6198 26.8751 71.3325 27.0639 71.1519C27.143 71.0386 27.2338 70.9341 27.3348 70.8399C27.2724 70.9477 27.2038 71.0518 27.1296 71.1519L26.481 72.0303L24.1003 75.1827L24.0182 75.2977L23.9361 75.1827L20.6523 71.0287L20.5702 70.9138L20.5127 70.8399L20.5702 70.766L23.9032 66.6613L23.9853 66.5545L24.0674 66.6613L26.4482 69.6906L27.0967 70.5115C27.1727 70.6036 27.2439 70.6995 27.3102 70.7989V70.7989Z" fill="#FAFAFA"/>
<path d="M39.7309 68.1882C39.6348 68.0951 39.5444 67.9964 39.46 67.8926L38.7622 67.0717L36.2993 64.1491H36.4635L33.1797 68.2538V68.1389L33.27 68.2456L36.4882 72.4243H36.324L38.7868 69.3785L39.4928 68.5576C39.576 68.4502 39.6666 68.3487 39.7638 68.2538C39.7062 68.362 39.6374 68.4638 39.5585 68.5576L38.91 69.436L36.5292 72.5967L36.4471 72.7034L36.365 72.5967L33.0812 68.4345L32.9991 68.3277L32.9417 68.2456L32.9991 68.1717L36.3322 64.067L36.4143 63.9685L36.4964 64.067L38.8771 67.0963L39.5257 67.9173C39.6005 68.0025 39.6691 68.0931 39.7309 68.1882V68.1882Z" fill="#FAFAFA"/>
<path d="M30.5688 59.3712C31.3317 60.1544 32.0342 60.9942 32.6705 61.8833H32.4981L32.5556 61.8176L32.6541 61.6862L32.8593 61.4317L33.2369 60.9474L33.8937 60.1264C34.081 59.8636 34.3018 59.6263 34.5505 59.4204C34.4157 59.716 34.2417 59.9922 34.0333 60.2414L33.4175 61.0623C33.2971 61.2156 33.174 61.3797 33.0481 61.5549L32.8429 61.8094L32.7444 61.9407L32.6951 62.0064H32.4899C31.7878 61.1747 31.1458 60.2941 30.5688 59.3712V59.3712Z" fill="#FAFAFA"/>
<path d="M18.4272 62.8356C18.1623 62.6131 17.9253 62.3595 17.7211 62.0803C17.3107 61.5959 16.7524 60.9228 16.1531 60.1675L16.0136 59.9869H16.2106C15.7427 60.8078 15.3158 61.4728 14.9956 61.9736C14.8412 62.2503 14.6567 62.509 14.4456 62.7453C14.545 62.4545 14.6831 62.1784 14.856 61.9243C15.1352 61.3989 15.5374 60.6929 16.0054 59.8966L16.0957 59.7488L16.2024 59.8884L16.342 60.0608C16.9412 60.8243 17.4749 61.5139 17.8525 62.0229C18.0747 62.2708 18.2675 62.5435 18.4272 62.8356V62.8356Z" fill="#FAFAFA"/>
<path d="M35.6182 81.2742C35.5195 81.1837 35.4288 81.0848 35.3473 80.9786L34.6413 80.1577L32.2195 77.2351H32.3755C31.4149 78.4419 30.282 79.8457 29.0917 81.3398V81.1921L29.182 81.2988L32.4001 85.4774H32.2277C33.221 84.2378 34.0502 83.2034 34.6905 82.4317L35.3966 81.6108C35.4769 81.501 35.5676 81.3993 35.6675 81.307C35.6059 81.4127 35.5373 81.5142 35.4622 81.6108L34.8137 82.4974L32.4329 85.6498L32.3508 85.7566L32.2605 85.6498C31.3164 84.4266 30.1999 83.0064 28.9767 81.4876L28.8946 81.3809L28.8372 81.307L28.8946 81.2331C30.1096 79.7308 31.2507 78.3352 32.2277 77.1284L32.3098 77.0298L32.3837 77.1284L34.7726 80.1577L35.4212 80.9786C35.4942 81.0721 35.56 81.1709 35.6182 81.2742V81.2742Z" fill="#FAFAFA"/>
<path d="M21.0543 84.7057C20.953 84.6179 20.8621 84.5187 20.7834 84.4102L20.0774 83.5893L17.6145 80.6667H17.7787L14.4949 84.7714V84.6237L14.5852 84.7304L17.8034 88.909H17.6392L20.102 85.8633L20.808 85.0423C20.8871 84.9291 20.9779 84.8245 21.0789 84.7304C21.0165 84.8382 20.948 84.9423 20.8737 85.0423L20.2252 85.9208L17.8444 89.0732L17.7623 89.1799L17.6802 89.0732L14.3964 84.911L14.3143 84.8043L14.2568 84.7304L14.3143 84.6565L17.6474 80.5517L17.7295 80.4532L17.8116 80.5517L20.1923 83.581L20.8409 84.402C20.9173 84.4994 20.9885 84.6008 21.0543 84.7057V84.7057Z" fill="#FAFAFA"/>
<path d="M8.79736 77.3993C8.89886 77.2789 9.01465 77.1714 9.14216 77.0791L10.1191 76.2581C10.94 75.6014 12.1222 74.7065 13.4029 73.7296L13.8791 73.3684V73.5244C13.173 72.219 12.5491 71.0615 12.114 70.2406C11.8574 69.7997 11.6377 69.3384 11.4572 68.8614C11.7636 69.2721 12.038 69.7058 12.2782 70.1585C12.7543 70.9794 13.4029 72.1287 14.1171 73.4423L14.1664 73.5408L14.0843 73.5982L13.6081 73.9595C12.311 74.9364 11.1453 75.8148 10.2669 76.4223C9.83176 76.7343 9.44591 76.9806 9.24067 77.1448C9.10637 77.2512 8.95696 77.3369 8.79736 77.3993V77.3993Z" fill="#FAFAFA"/>
<path d="M45.7978 80.7487C45.6649 80.6698 45.5434 80.5732 45.4366 80.4614C45.2067 80.2726 44.8948 79.9853 44.5007 79.6405C43.729 78.9262 42.6618 77.9329 41.496 76.8164L41.4468 76.7671V76.6932C41.9804 75.1745 42.473 73.8035 42.8424 72.8183C43.023 72.3176 43.179 71.9235 43.2857 71.6444C43.332 71.4991 43.3983 71.3609 43.4827 71.2339C43.4667 71.3857 43.4308 71.5347 43.376 71.6772C43.2939 71.9646 43.1626 72.3668 42.9984 72.8676C42.6782 73.8774 42.1774 75.2566 41.6766 76.7753V76.6522C42.8424 77.7605 43.885 78.7785 44.6321 79.5255C45.0015 79.895 45.3052 80.1987 45.5023 80.4122C45.6151 80.511 45.7144 80.6241 45.7978 80.7487V80.7487Z" fill="#FAFAFA"/>
<path d="M40.6012 62.7371C40.5178 62.7745 40.4293 62.7994 40.3385 62.8109C40.1661 62.8109 39.9116 62.9095 39.5668 62.9505C38.6148 63.0785 37.653 63.1197 36.6935 63.0736C35.4703 63.0326 34.0336 62.8684 32.441 62.6632C30.7254 62.412 28.9945 62.2804 27.2608 62.2691C25.4136 62.2691 23.665 62.4743 22.0641 62.6303C20.4633 62.7863 19.0266 62.9177 17.8116 62.9505C16.8507 62.9892 15.8882 62.9673 14.9301 62.8848C14.5935 62.8848 14.3308 62.8109 14.1584 62.7863C14.0665 62.7804 13.9755 62.7639 13.8875 62.7371H14.1584C14.339 62.7371 14.6017 62.7781 14.9383 62.7863C15.8927 62.8358 16.849 62.8358 17.8034 62.7863C19.0102 62.7288 20.4469 62.5893 22.0395 62.4169C23.6322 62.2445 25.3972 62.0557 27.2608 62.031C29.0062 62.0453 30.7484 62.1852 32.4738 62.4497C34.0582 62.6714 35.4949 62.852 36.7017 62.9095C37.6537 62.9731 38.6094 62.9566 39.5586 62.8602C40.2482 62.7863 40.6012 62.7124 40.6012 62.7371Z" fill="#263238"/>
<path d="M15.8413 75.0431C15.8179 74.8798 15.8179 74.7139 15.8413 74.5506C15.8413 74.2386 15.907 73.7871 15.9727 73.2206C16.1517 71.7586 16.4038 70.3064 16.728 68.8696C17.0974 67.2277 17.5489 65.6843 17.8855 64.6088C18.0661 64.0752 18.2139 63.6483 18.3288 63.3528C18.3756 63.1934 18.4447 63.0414 18.534 62.9013C18.5175 63.0645 18.4789 63.2247 18.4191 63.3774C18.3206 63.7386 18.1975 64.1984 18.0497 64.6663C17.7377 65.75 17.3355 67.2441 16.9578 68.9271C16.5802 70.61 16.3175 72.137 16.1369 73.2453C16.0548 73.7625 15.9891 74.1976 15.9316 74.567C15.9208 74.7288 15.8905 74.8887 15.8413 75.0431V75.0431Z" fill="#263238"/>
<path d="M18.2712 70.4786C18.3684 69.202 18.5438 67.9326 18.7966 66.6776C18.9712 65.4094 19.2262 64.1535 19.5601 62.9176C19.4636 64.1943 19.2881 65.4637 19.0347 66.7186C18.8602 67.9869 18.6052 69.2427 18.2712 70.4786Z" fill="#263238"/>
<path d="M38.4424 81.6518C38.3149 81.4309 38.2051 81.2003 38.114 80.9622C37.9169 80.5107 37.6625 79.8539 37.3669 79.033C35.8245 74.7342 34.9093 70.2357 34.6496 65.6761C34.6003 64.8059 34.5839 64.0998 34.5921 63.6073C34.5712 63.3559 34.5712 63.1033 34.5921 62.852C34.6358 63.1014 34.6577 63.3541 34.6578 63.6073C34.6578 64.0916 34.7317 64.7977 34.7973 65.6679C34.9729 67.9291 35.2882 70.1773 35.7414 72.3997C36.1948 74.6221 36.7815 76.8153 37.4983 78.9673C37.7774 79.7882 38.0072 80.4614 38.1796 80.9212C38.2863 81.1574 38.3742 81.4017 38.4424 81.6518V81.6518Z" fill="#455A64"/>
<path d="M37.9086 69.8629C37.7394 69.5644 37.6123 69.244 37.531 68.9106C37.334 68.3031 37.0795 67.4658 36.8414 66.5299C36.6033 65.594 36.4145 64.732 36.2996 64.1081C36.2134 63.7756 36.1692 63.4336 36.1682 63.0901C36.3092 63.4049 36.4112 63.7357 36.472 64.0752C36.6526 64.7812 36.8496 65.5858 37.0795 66.4724C37.3093 67.359 37.5146 68.1554 37.6952 68.8614C37.7973 69.1879 37.8687 69.5232 37.9086 69.8629V69.8629Z" fill="#455A64"/>
<path d="M25.5695 89.5247C25.5695 89.5247 25.5038 89.5247 25.3724 89.5247C25.2411 89.5247 25.0605 89.4837 24.8224 89.4344C24.1554 89.2901 23.4974 89.1064 22.8521 88.8844C20.7411 88.0919 18.6795 87.1735 16.6785 86.1342C14.6874 85.1 12.571 84.3274 10.3818 83.8355C9.71536 83.7056 9.04048 83.6233 8.3623 83.5892C7.88615 83.5892 7.61523 83.5892 7.61523 83.5482H7.81227C7.93541 83.5482 8.12422 83.5482 8.37051 83.5482C9.05597 83.5462 9.7402 83.6066 10.4147 83.7288C12.6331 84.1725 14.7777 84.927 16.7853 85.97C19.1578 87.1275 21.2841 88.203 22.9096 88.7777C23.5441 89.0168 24.1908 89.2224 24.847 89.3934C25.0904 89.4217 25.3317 89.4656 25.5695 89.5247V89.5247Z" fill="#455A64"/>
<path d="M46.2166 82.5138C46.0267 82.6621 45.8264 82.7965 45.6173 82.9161C45.2314 83.1624 44.6486 83.5072 43.9261 83.9094C42.0376 84.9573 40.0885 85.8921 38.0891 86.7089C36.086 87.522 34.0353 88.2129 31.9484 88.7777C31.1275 88.9911 30.4954 89.1553 30.0438 89.2456C29.8104 89.31 29.5711 89.3512 29.3296 89.3687C29.5536 89.2798 29.7841 89.2084 30.0192 89.1553C30.4625 89.0322 31.1111 88.8515 31.8992 88.6135C33.4836 88.1455 35.6591 87.4313 37.9906 86.479C40.3221 85.5267 42.3827 84.5251 43.844 83.7616L45.568 82.834C45.7735 82.7068 45.9907 82.5996 46.2166 82.5138Z" fill="#455A64"/>
<path d="M38.4257 60.8571C38.3142 61.3182 38.0719 61.7372 37.7279 62.0639C37.4366 62.4368 37.0472 62.7211 36.6032 62.8848C36.5622 62.8274 37.0548 62.4497 37.5473 61.8915C38.0399 61.3332 38.3683 60.8242 38.4257 60.8571Z" fill="#263238"/>
<path d="M19.8722 59.5928C19.9379 59.5928 19.9871 60.3071 20.2909 61.128C20.5946 61.949 21.0133 62.5236 20.9559 62.5729C20.5286 62.2178 20.217 61.7433 20.061 61.2101C19.8353 60.7027 19.7694 60.1386 19.8722 59.5928V59.5928Z" fill="#263238"/>
<path d="M7.04077 130.055C7.04077 130.055 13.4278 112.61 15.004 111.567C16.5802 110.525 23.1314 108.678 23.1314 108.678L28.0079 124.785L33.8202 108.448C33.8202 108.448 39.9692 110.303 41.7342 113.061C43.4992 115.82 48.0309 130.113 48.0309 130.113L38.319 133.815L39.5587 139.685L15.0615 139.365L16.5392 134.332L7.04077 130.055Z" fill="#27AE7B"/>
<g opacity="0.3">
<path opacity="0.3" d="M20.3403 119.481C18.675 116.719 17.8214 113.544 17.8774 110.319L15.4146 111.255C15.5516 114.532 16.542 117.715 18.2879 120.491C18.5285 120.936 18.8789 121.312 19.3059 121.583C19.5228 121.711 19.7767 121.761 20.0259 121.725C20.2751 121.689 20.5047 121.57 20.6769 121.386C21.0873 120.844 20.7015 120.072 20.3403 119.481Z" fill="black"/>
</g>
<g opacity="0.3">
<path opacity="0.3" d="M23.4188 128.972C23.3379 128.818 23.2209 128.686 23.078 128.587C22.935 128.489 22.7703 128.426 22.5979 128.405V128.405C22.3917 128.378 22.1822 128.395 21.9833 128.456C21.7844 128.516 21.6007 128.619 21.4445 128.756C21.2883 128.893 21.1631 129.062 21.0774 129.251C20.9916 129.441 20.9473 129.646 20.9473 129.854C20.9473 130.062 20.9916 130.267 21.0774 130.457C21.1631 130.646 21.2883 130.815 21.4445 130.952C21.6007 131.089 21.7844 131.192 21.9833 131.252C22.1822 131.313 22.3917 131.33 22.5979 131.303C22.8759 131.263 23.1297 131.123 23.3121 130.909C23.4657 130.693 23.5617 130.442 23.5912 130.178C23.6645 129.768 23.6041 129.345 23.4188 128.972V128.972Z" fill="black"/>
</g>
<g opacity="0.3">
<path opacity="0.3" d="M38.549 134.899C37.6368 135.938 36.5185 136.777 35.2651 137.362C34.6266 137.676 33.9245 137.839 33.2128 137.839C32.5011 137.839 31.7989 137.676 31.1604 137.362C30.5939 137.05 30.0357 136.541 29.3953 136.631C28.9274 136.688 28.4677 137.041 28.0244 136.877C27.8977 136.822 27.7869 136.736 27.7022 136.627C27.6175 136.518 27.5618 136.39 27.54 136.253C27.5125 135.986 27.5659 135.716 27.6932 135.479C27.8205 135.242 28.0159 135.048 28.2542 134.923C28.742 134.691 29.2892 134.614 29.8222 134.702C30.3559 134.767 30.8731 134.923 31.4067 134.997C33.574 135.309 36.1682 133.618 37.7034 131.894L38.8445 130.564L38.2781 133.741L38.549 134.899Z" fill="black"/>
</g>
<path d="M40.0513 125.491C39.8798 126.9 39.6276 128.297 39.296 129.678C39.046 131.063 38.7199 132.433 38.3191 133.782C38.4995 132.375 38.7516 130.977 39.0744 129.595C39.3278 128.211 39.6539 126.841 40.0513 125.491V125.491Z" fill="#263238"/>
<path d="M39.7225 111.313C39.7143 111.456 39.6838 111.597 39.6322 111.732C39.5236 112.108 39.375 112.471 39.1889 112.815C38.5651 113.963 37.621 114.904 36.4716 115.524C35.3142 116.122 34.0063 116.365 32.7116 116.222C32.3214 116.182 31.9362 116.102 31.5623 115.984C31.4222 115.949 31.289 115.891 31.1682 115.812C31.1682 115.812 31.7511 115.992 32.7198 116.066C33.9802 116.153 35.2404 115.895 36.3648 115.319C37.4791 114.721 38.4056 113.826 39.0411 112.733C39.5337 111.896 39.6815 111.305 39.7225 111.313Z" fill="white"/>
<path d="M41.5945 112.946C41.5548 113.112 41.4882 113.27 41.3974 113.414C41.1847 113.827 40.9317 114.217 40.6422 114.58C39.6887 115.798 38.4184 116.731 36.9704 117.275C35.5224 117.82 33.9525 117.955 32.4327 117.667C31.9766 117.583 31.5288 117.46 31.0945 117.298C30.931 117.247 30.776 117.172 30.6348 117.076C30.6348 117.035 31.3162 117.33 32.4573 117.511C33.9458 117.747 35.4701 117.591 36.8806 117.06C38.291 116.529 39.5392 115.641 40.5026 114.482C40.8987 113.994 41.2634 113.481 41.5945 112.946V112.946Z" fill="white"/>
<path d="M27.1129 122.954C26.9527 123.046 26.7817 123.118 26.6039 123.167C26.2755 123.282 25.7829 123.471 25.2247 123.717C23.7184 124.364 22.2801 125.159 20.9311 126.09C19.5827 127.021 18.3313 128.086 17.1958 129.267C16.7607 129.719 16.4159 130.088 16.186 130.367C16.0705 130.508 15.9442 130.64 15.8083 130.761C15.8916 130.599 15.9936 130.448 16.1121 130.31C16.3256 130.022 16.6539 129.628 17.0726 129.16C18.183 127.924 19.4338 126.822 20.7997 125.876C22.1597 124.937 23.6222 124.154 25.159 123.545C25.6234 123.358 26.0975 123.197 26.5792 123.061C26.7526 123.005 26.9316 122.97 27.1129 122.954V122.954Z" fill="white"/>
<path d="M26.8259 121.14C26.6679 121.222 26.4994 121.283 26.3251 121.32C25.9967 121.419 25.5041 121.567 24.9459 121.764C23.4328 122.268 21.9523 122.866 20.5128 123.553C19.0773 124.249 17.6847 125.031 16.3423 125.893C15.8333 126.221 15.4146 126.5 15.1355 126.714C14.9918 126.822 14.8379 126.915 14.6758 126.993C14.7966 126.861 14.9315 126.743 15.078 126.64C15.349 126.418 15.7512 126.123 16.252 125.778C17.5729 124.864 18.9648 124.057 20.4142 123.364C21.8615 122.67 23.3601 122.088 24.8966 121.624C25.4877 121.452 25.9639 121.32 26.3005 121.255C26.4699 121.194 26.6465 121.155 26.8259 121.14V121.14Z" fill="white"/>
<path d="M44.353 131.172C43.6462 130.548 42.9033 129.967 42.1282 129.431C41.3071 128.967 40.4571 128.555 39.5833 128.2C39.8647 128.21 40.1424 128.268 40.4042 128.372C41.0517 128.568 41.6722 128.844 42.2513 129.193C42.8296 129.554 43.3617 129.984 43.8358 130.474C44.0437 130.678 44.2183 130.913 44.353 131.172V131.172Z" fill="white"/>
<path d="M10.5711 131.205C10.0611 130.395 9.65819 129.523 9.37246 128.61C9.02123 127.72 8.78935 126.787 8.68286 125.835C8.74854 125.835 9.0687 127.059 9.5859 128.536C10.1031 130.014 10.6367 131.18 10.5711 131.205Z" fill="white"/>
<path d="M20.7833 139.463C19.8965 139.171 19.0476 138.774 18.2548 138.281C17.4187 137.86 16.6405 137.333 15.9397 136.713C15.9397 136.664 17.0316 137.329 18.4026 138.084C19.7735 138.839 20.8161 139.406 20.7833 139.463Z" fill="white"/>
<path d="M27.1128 128.068C26.9971 127.839 26.901 127.6 26.8255 127.354C26.6448 126.894 26.4068 126.213 26.1194 125.376C25.5366 123.734 24.7567 121.369 23.9357 118.808C23.1148 116.247 22.4087 113.882 21.908 112.167C21.6617 111.346 21.4729 110.623 21.3415 110.147C21.2656 109.899 21.2053 109.647 21.1609 109.392C21.2711 109.627 21.359 109.871 21.4236 110.122C21.5878 110.631 21.8094 111.305 22.0639 112.126C22.614 113.85 23.3446 116.173 24.1574 118.734C24.9701 121.296 25.7172 123.619 26.2672 125.302C26.5299 126.123 26.7434 126.796 26.9076 127.305C26.9967 127.553 27.0653 127.809 27.1128 128.068V128.068Z" fill="#263238"/>
<path d="M29.1571 128.134C28.824 128.244 28.4717 128.283 28.1227 128.249C27.7715 128.293 27.415 128.257 27.0801 128.142C27.7633 127.984 28.4738 127.984 29.1571 128.142V128.134Z" fill="#263238"/>
<path d="M35.3223 108.948C35.4044 108.595 34.1319 113.004 32.4243 118.398C30.7167 123.791 29.2883 128.151 29.2308 128.134C29.1733 128.118 30.5033 123.726 32.2109 118.283C33.9184 112.84 35.3223 108.948 35.3223 108.948Z" fill="#263238"/>
<path d="M16.5145 134.324C16.4488 134.324 15.907 132.239 15.2995 129.636C14.8877 128.073 14.5562 126.489 14.3062 124.891C14.3636 124.891 14.9137 126.977 15.5212 129.587C16.1287 132.198 16.572 134.316 16.5145 134.324Z" fill="#263238"/>
</svg>
